<?xml version="1.0" encoding="iso-8859-1"?>
<!-- Generator: Adobe Illustrator 16.0.0, SVG Export Plug-In . SVG Version: 6.00 Build 0)  -->
<!DOCTYPE svg PUBLIC "-//W3C//DTD SVG 1.1//EN" "http://www.w3.org/Graphics/SVG/1.1/DTD/svg11.dtd">
<svg xmlns="http://www.w3.org/2000/svg" xmlns:xlink="http://www.w3.org/1999/xlink" version="1.1" id="Capa_1" x="0px" y="0px" width="512px" height="512px" viewBox="0 0 323.498 323.498" style="enable-background:new 0 0 323.498 323.498;" xml:space="preserve">
<g>
	<g>
		<path d="M276.089,62.72c-11.016-1.836-29.987-1.836-39.168,4.896c-14.076,9.792-9.18,41.616-8.567,56.304    c1.224,34.884,4.896,69.156,9.792,104.041v0.611c41.615-6.12,68.544-33.048,67.932-77.724    C305.465,122.083,309.137,68.84,276.089,62.72z" fill="#FFFFFF"/>
		<path d="M227.129,229.184C227.129,229.184,227.129,228.571,227.129,229.184c-52.632,4.284-110.771,6.12-162.792-3.672    c-0.612,0-1.224-0.612-1.836-1.224l-1.836,2.447c1.836,0,3.672,1.225,3.672,3.061c1.836,31.823-7.344,67.932,29.988,84.456    c17.136,7.956,42.228,8.567,60.588,9.18c26.316,0.612,59.364-2.448,66.708-32.437c4.284-18.359,2.448-39.168,1.836-57.527    C223.457,231.02,225.293,229.796,227.129,229.184z" fill="#FFFFFF"/>
		<path d="M194.693,55.988c5.508,1.224,15.912,0.612,17.136-6.12c0.612-2.448-1.224-4.284-3.672-4.896    c-2.448,0-4.284,1.224-6.12,1.836c-1.836,0.612-4.284,0.612-6.12,0.612C191.021,46.808,190.409,54.764,194.693,55.988z" fill="#FFFFFF"/>
		<path d="M203.873,141.056c3.672,1.224,6.732-3.06,4.896-6.12c-2.448-3.672-6.12-5.508-9.792-7.344    c-3.673-1.836-7.345-3.672-11.017-4.896c-3.672-1.224-5.508,4.284-2.448,6.12c3.061,1.836,6.732,4.284,9.792,6.732    C197.753,137.384,200.201,139.832,203.873,141.056z" fill="#FFFFFF"/>
		<path d="M174.497,35.18c3.06-3.672,5.508-8.568,7.956-12.852c2.448-4.284,5.508-9.18,6.12-14.076    c0.612-4.284-4.284-8.568-7.956-4.896s-5.508,8.568-7.344,13.464c-1.836,4.896-4.284,9.18-5.508,14.076    C167.153,34.567,172.049,38.24,174.497,35.18z" fill="#FFFFFF"/>
		<path d="M178.169,218.168c3.061,0,6.732,0,9.792,0c0-16.524,0.612-31.824-11.628-45.288c-8.568-9.181-20.808-15.3-33.659-15.912    c-36.108-0.612-44.676,31.824-42.84,61.2c4.896,0,10.404,0,15.3,0c-12.852-20.809-4.896-57.528,25.092-53.244    C159.81,167.983,194.693,196.136,178.169,218.168C178.781,218.168,178.169,218.168,178.169,218.168z" fill="#FFFFFF"/>
		<path d="M173.885,83.527c-1.224-1.836-1.836-3.672-2.447-5.508c-0.612-1.836-1.836-4.284-3.061-6.12    c-3.06,3.672-5.508,7.956-7.956,12.24c4.284,0,8.568,0,12.852,0.612C173.885,84.14,173.885,84.14,173.885,83.527z" fill="#FFFFFF"/>
		<path d="M164.705,67.003c-4.896,0.612-9.792,0.612-14.076,1.224c2.448,3.06,5.508,6.732,7.344,10.404    C159.81,74.959,162.258,70.676,164.705,67.003z" fill="#FFFFFF"/>
		<path d="M151.242,116.576c-2.448,7.344-4.284,14.688-6.732,22.032c9.18-15.3,17.748-30.6,25.703-46.512    c-4.284,1.224-8.567,1.224-12.851,1.836C155.525,101.888,153.689,109.231,151.242,116.576z" fill="#FFFFFF"/>
		<path d="M132.882,85.976c6.12-0.612,12.852-1.224,18.972-1.836c-0.612-1.224-1.224-3.06-2.448-4.284    c-2.448-3.672-4.896-7.344-7.344-10.404c-5.508,4.896-9.18,11.016-12.852,17.136C131.045,86.587,131.658,85.976,132.882,85.976z" fill="#FFFFFF"/>
		<path d="M128.598,95.768c3.672,12.852,7.956,26.316,10.404,39.78c1.224-7.344,3.672-14.076,5.508-20.808    s3.672-13.464,5.508-19.584c-5.508,0-11.016,0.612-17.136,0.612C131.658,95.768,129.822,95.768,128.598,95.768z" fill="#FFFFFF"/>
		<path d="M137.166,28.448c0-4.284-0.612-7.956,0-12.24c0.612-3.672,2.448-7.344,1.836-11.628c0-4.284-4.896-6.12-7.956-3.06    c-6.732,6.12-6.12,19.584-3.672,27.54C129.209,34.567,137.166,33.956,137.166,28.448z" fill="#FFFFFF"/>
		<path d="M123.702,85.976c1.836-6.12,5.508-11.628,9.792-16.524c-7.956,0.612-15.912,0.612-24.48,1.224    c1.224,1.224,3.06,3.06,4.284,4.284C116.97,78.632,120.642,81.691,123.702,85.976z" fill="#FFFFFF"/>
		<path d="M94.326,96.379c7.956,6.12,14.688,15.3,21.42,22.644c6.12,6.12,11.628,12.24,17.136,18.972    c-3.672-13.464-6.12-28.152-8.568-41.616C114.521,96.992,104.729,97.604,94.326,96.379z" fill="#FFFFFF"/>
		<path d="M116.97,87.2c-3.672-4.284-7.344-9.18-11.628-12.24c-7.344-4.896-9.18,5.508-11.016,11.016    c-0.612,1.836-1.836,3.672-2.448,5.508C99.833,89.036,108.402,88.424,116.97,87.2z" fill="#FFFFFF"/>
		<path d="M86.37,49.868c4.896,1.836,7.956-6.12,3.672-8.568c-7.344-4.284-12.852-10.404-18.36-17.136    c-3.06-3.672-9.18,0-7.956,4.284C66.786,38.852,75.966,46.195,86.37,49.868z" fill="#FFFFFF"/>
		<path d="M85.758,134.936c3.06-1.836,1.836-6.732-1.836-6.732c-7.956,0.612-15.3,3.06-22.644,5.508    c-7.344,2.448-15.3,4.896-22.032,9.18c-4.896,3.06-1.836,11.016,3.672,9.18c7.344-1.836,13.464-5.508,20.196-8.568    C71.07,141.056,79.025,139.22,85.758,134.936z" fill="#FFFFFF"/>
		<path d="M63.726,92.096c6.12-2.448,3.672-10.404-2.448-9.792c-6.732,1.224-13.464,1.836-20.196,1.224    c-6.12-0.612-12.24-4.284-18.36-3.672c-4.284,0.612-7.344,5.508-3.672,9.18C27.618,99.439,52.098,96.379,63.726,92.096z" fill="#FFFFFF"/>
	</g>
</g>
<g>
</g>
<g>
</g>
<g>
</g>
<g>
</g>
<g>
</g>
<g>
</g>
<g>
</g>
<g>
</g>
<g>
</g>
<g>
</g>
<g>
</g>
<g>
</g>
<g>
</g>
<g>
</g>
<g>
</g>
</svg>
